<svg role="img" xmlns="http://www.w3.org/2000/svg" width="712" height="1084" viewBox="0 0 712 1084" font-family="sans-serif" font-size="14">
  <rect width="100%" height="100%" fill="#ffffff"/>
  <path d="M172.18,582 C179.09,582 179.09,207.5 186,207.5" fill="none" stroke="#333333"/>
  <path d="M278.37,207.5 C317.18,207.5 317.18,63 356,63" fill="none" stroke="#333333"/>
  <path d="M490.38,63 C508.19,63 508.19,29 526,29" fill="none" stroke="#333333"/>
  <path d="M490.38,63 C508.19,63 508.19,63 526,63" fill="none" stroke="#333333"/>
  <path d="M490.38,63 C508.19,63 508.19,97 526,97" fill="none" stroke="#333333"/>
  <path d="M278.37,207.5 C317.18,207.5 317.18,165 356,165" fill="none" stroke="#333333"/>
  <path d="M478.69,165 C502.35,165 502.35,131 526,131" fill="none" stroke="#333333"/>
  <path d="M478.69,165 C502.35,165 502.35,165 526,165" fill="none" stroke="#333333"/>
  <path d="M478.69,165 C502.35,165 502.35,199 526,199" fill="none" stroke="#333333"/>
  <path d="M278.37,207.5 C317.18,207.5 317.18,267 356,267" fill="none" stroke="#333333"/>
  <path d="M479.47,267 C502.74,267 502.74,233 526,233" fill="none" stroke="#333333"/>
  <path d="M479.47,267 C502.74,267 502.74,267 526,267" fill="none" stroke="#333333"/>
  <path d="M479.47,267 C502.74,267 502.74,301 526,301" fill="none" stroke="#333333"/>
  <path d="M278.37,207.5 C317.18,207.5 317.18,352 356,352" fill="none" stroke="#333333"/>
  <path d="M485.69,352 C505.85,352 505.85,335 526,335" fill="none" stroke="#333333"/>
  <path d="M485.69,352 C505.85,352 505.85,369 526,369" fill="none" stroke="#333333"/>
  <path d="M172.18,582 C179.09,582 179.09,488 186,488" fill="none" stroke="#333333"/>
  <path d="M311.81,488 C333.91,488 333.91,437 356,437" fill="none" stroke="#333333"/>
  <path d="M475.6,437 C500.8,437 500.8,403 526,403" fill="none" stroke="#333333"/>
  <path d="M475.6,437 C500.8,437 500.8,437 526,437" fill="none" stroke="#333333"/>
  <path d="M475.6,437 C500.8,437 500.8,471 526,471" fill="none" stroke="#333333"/>
  <path d="M311.81,488 C333.91,488 333.91,539 356,539" fill="none" stroke="#333333"/>
  <path d="M445.24,539 C485.62,539 485.62,505 526,505" fill="none" stroke="#333333"/>
  <path d="M445.24,539 C485.62,539 485.62,539 526,539" fill="none" stroke="#333333"/>
  <path d="M445.24,539 C485.62,539 485.62,573 526,573" fill="none" stroke="#333333"/>
  <path d="M172.18,582 C179.09,582 179.09,740.5 186,740.5" fill="none" stroke="#333333"/>
  <path d="M293.11,740.5 C324.55,740.5 324.55,641 356,641" fill="none" stroke="#333333"/>
  <path d="M474.07,641 C500.03,641 500.03,607 526,607" fill="none" stroke="#333333"/>
  <path d="M474.07,641 C500.03,641 500.03,641 526,641" fill="none" stroke="#333333"/>
  <path d="M474.07,641 C500.03,641 500.03,675 526,675" fill="none" stroke="#333333"/>
  <path d="M293.11,740.5 C324.55,740.5 324.55,743 356,743" fill="none" stroke="#333333"/>
  <path d="M465.46,743 C495.73,743 495.73,709 526,709" fill="none" stroke="#333333"/>
  <path d="M465.46,743 C495.73,743 495.73,743 526,743" fill="none" stroke="#333333"/>
  <path d="M465.46,743 C495.73,743 495.73,777 526,777" fill="none" stroke="#333333"/>
  <path d="M293.11,740.5 C324.55,740.5 324.55,840 356,840" fill="none" stroke="#333333"/>
  <path d="M452.26,840 C489.13,840 489.13,819 526,819" fill="none" stroke="#333333"/>
  <path d="M452.26,840 C489.13,840 489.13,861 526,861" fill="none" stroke="#333333"/>
  <path d="M172.18,582 C179.09,582 179.09,956.5 186,956.5" fill="none" stroke="#333333"/>
  <path d="M285.38,956.5 C320.69,956.5 320.69,912 356,912" fill="none" stroke="#333333"/>
  <path d="M516.84,912 C521.42,912 521.42,895 526,895" fill="none" stroke="#333333"/>
  <path d="M516.84,912 C521.42,912 521.42,929 526,929" fill="none" stroke="#333333"/>
  <path d="M285.38,956.5 C320.69,956.5 320.69,1001 356,1001" fill="none" stroke="#333333"/>
  <path d="M464.7,1001 C495.35,1001 495.35,963 526,963" fill="none" stroke="#333333"/>
  <path d="M464.7,1001 C495.35,1001 495.35,997 526,997" fill="none" stroke="#333333"/>
  <path d="M464.7,1001 C495.35,1001 495.35,1039 526,1039" fill="none" stroke="#333333"/>
  <rect x="16" y="569" width="156.18" height="26" rx="13" fill="#ECECFF" stroke="#9370DB"/>
<text fill="#333333" text-anchor="middle"><tspan x="94.09" y="586.9">Effective Presentation</tspan></text>
  <rect x="186" y="194.5" width="92.37" height="26" rx="13" fill="#ECECFF" stroke="#9370DB"/>
<text fill="#333333" text-anchor="middle"><tspan x="232.18" y="212.4">Preparation</tspan></text>
  <rect x="356" y="50" width="134.38" height="26" rx="13" fill="#ECECFF" stroke="#9370DB"/>
<text fill="#333333" text-anchor="middle"><tspan x="423.19" y="67.9">Audience Analysis</tspan></text>
  <rect x="526" y="16" width="110.24" height="26" rx="13" fill="#ECECFF" stroke="#9370DB"/>
<text fill="#333333" text-anchor="middle"><tspan x="581.12" y="33.9">Demographics</tspan></text>
  <rect x="526" y="50" width="126.61" height="26" rx="13" fill="#ECECFF" stroke="#9370DB"/>
<text fill="#333333" text-anchor="middle"><tspan x="589.3" y="67.9">Knowledge Level</tspan></text>
  <rect x="526" y="84" width="131.27" height="26" rx="13" fill="#ECECFF" stroke="#9370DB"/>
<text fill="#333333" text-anchor="middle"><tspan x="591.64" y="101.9">Needs &amp; Interests</tspan></text>
  <rect x="356" y="152" width="122.69" height="26" rx="13" fill="#ECECFF" stroke="#9370DB"/>
<text fill="#333333" text-anchor="middle"><tspan x="417.35" y="169.9">Clear Objectives</tspan></text>
  <rect x="526" y="118" width="59.68" height="26" rx="13" fill="#ECECFF" stroke="#9370DB"/>
<text fill="#333333" text-anchor="middle"><tspan x="555.84" y="135.9">Inform</tspan></text>
  <rect x="526" y="152" width="79.92" height="26" rx="13" fill="#ECECFF" stroke="#9370DB"/>
<text fill="#333333" text-anchor="middle"><tspan x="565.96" y="169.9">Persuade</tspan></text>
  <rect x="526" y="186" width="62.01" height="26" rx="13" fill="#ECECFF" stroke="#9370DB"/>
<text fill="#333333" text-anchor="middle"><tspan x="557.01" y="203.9">Inspire</tspan></text>
  <rect x="356" y="254" width="123.47" height="26" rx="13" fill="#ECECFF" stroke="#9370DB"/>
<text fill="#333333" text-anchor="middle"><tspan x="417.74" y="271.9">Structure &amp; Flow</tspan></text>
  <rect x="526" y="220" width="109.49" height="26" rx="13" fill="#ECECFF" stroke="#9370DB"/>
<text fill="#333333" text-anchor="middle"><tspan x="580.74" y="237.9">Hook Opening</tspan></text>
  <rect x="526" y="254" width="111.81" height="26" rx="13" fill="#ECECFF" stroke="#9370DB"/>
<text fill="#333333" text-anchor="middle"><tspan x="581.91" y="271.9">Key Messages</tspan></text>
  <rect x="526" y="288" width="153.8" height="26" rx="13" fill="#ECECFF" stroke="#9370DB"/>
<text fill="#333333" text-anchor="middle"><tspan x="602.9" y="305.9">Memorable Summary</tspan></text>
  <rect x="356" y="339" width="129.69" height="26" rx="13" fill="#ECECFF" stroke="#9370DB"/>
<text fill="#333333" text-anchor="middle"><tspan x="420.85" y="356.9">Practice &amp; Timing</tspan></text>
  <rect x="526" y="322" width="83.8" height="26" rx="13" fill="#ECECFF" stroke="#9370DB"/>
<text fill="#333333" text-anchor="middle"><tspan x="567.9" y="339.9">Rehearsal</tspan></text>
  <rect x="526" y="356" width="136.7" height="26" rx="13" fill="#ECECFF" stroke="#9370DB"/>
<text fill="#333333" text-anchor="middle"><tspan x="594.35" y="373.9">Time Management</tspan></text>
  <rect x="186" y="475" width="125.81" height="26" rx="13" fill="#ECECFF" stroke="#9370DB"/>
<text fill="#333333" text-anchor="middle"><tspan x="248.91" y="492.9">Design &amp; Visuals</tspan></text>
  <rect x="356" y="424" width="119.6" height="26" rx="13" fill="#ECECFF" stroke="#9370DB"/>
<text fill="#333333" text-anchor="middle"><tspan x="415.8" y="441.9">Slide Aesthetics</tspan></text>
  <rect x="526" y="390" width="99.34" height="26" rx="13" fill="#ECECFF" stroke="#9370DB"/>
<text fill="#333333" text-anchor="middle"><tspan x="575.67" y="407.9">Minimal Text</tspan></text>
  <rect x="526" y="424" width="150.69" height="26" rx="13" fill="#ECECFF" stroke="#9370DB"/>
<text fill="#333333" text-anchor="middle"><tspan x="601.35" y="441.9">High-Contrast Colors</tspan></text>
  <rect x="526" y="458" width="118.83" height="26" rx="13" fill="#ECECFF" stroke="#9370DB"/>
<text fill="#333333" text-anchor="middle"><tspan x="585.41" y="475.9">Readable Fonts</tspan></text>
  <rect x="356" y="526" width="89.24" height="26" rx="13" fill="#ECECFF" stroke="#9370DB"/>
<text fill="#333333" text-anchor="middle"><tspan x="400.62" y="543.9">Visual Aids</tspan></text>
  <rect x="526" y="492" width="116.49" height="26" rx="13" fill="#ECECFF" stroke="#9370DB"/>
<text fill="#333333" text-anchor="middle"><tspan x="584.24" y="509.9">Images &amp; Icons</tspan></text>
  <rect x="526" y="526" width="94.69" height="26" rx="13" fill="#ECECFF" stroke="#9370DB"/>
<text fill="#333333" text-anchor="middle"><tspan x="573.35" y="543.9">Data Charts</tspan></text>
  <rect x="526" y="560" width="100.15" height="26" rx="13" fill="#ECECFF" stroke="#9370DB"/>
<text fill="#333333" text-anchor="middle"><tspan x="576.08" y="577.9">Short Videos</tspan></text>
  <rect x="186" y="727.5" width="107.11" height="26" rx="13" fill="#ECECFF" stroke="#9370DB"/>
<text fill="#333333" text-anchor="middle"><tspan x="239.55" y="745.4">Delivery Skills</tspan></text>
  <rect x="356" y="628" width="118.07" height="26" rx="13" fill="#ECECFF" stroke="#9370DB"/>
<text fill="#333333" text-anchor="middle"><tspan x="415.03" y="645.9">Body Language</tspan></text>
  <rect x="526" y="594" width="106.38" height="26" rx="13" fill="#ECECFF" stroke="#9370DB"/>
<text fill="#333333" text-anchor="middle"><tspan x="579.19" y="611.9">Open Posture</tspan></text>
  <rect x="526" y="628" width="125.81" height="26" rx="13" fill="#ECECFF" stroke="#9370DB"/>
<text fill="#333333" text-anchor="middle"><tspan x="588.91" y="645.9">Natural Gestures</tspan></text>
  <rect x="526" y="662" width="145.29" height="26" rx="13" fill="#ECECFF" stroke="#9370DB"/>
<text fill="#333333" text-anchor="middle"><tspan x="598.64" y="679.9">Movement on Stage</tspan></text>
  <rect x="356" y="730" width="109.46" height="26" rx="13" fill="#ECECFF" stroke="#9370DB"/>
<text fill="#333333" text-anchor="middle"><tspan x="410.73" y="747.9">Vocal Delivery</tspan></text>
  <rect x="526" y="696" width="116.49" height="26" rx="13" fill="#ECECFF" stroke="#9370DB"/>
<text fill="#333333" text-anchor="middle"><tspan x="584.24" y="713.9">Pace &amp; Volume</tspan></text>
  <rect x="526" y="730" width="100.15" height="26" rx="13" fill="#ECECFF" stroke="#9370DB"/>
<text fill="#333333" text-anchor="middle"><tspan x="576.08" y="747.9">Tone &amp; Pitch</tspan></text>
  <rect x="526" y="764" width="125.83" height="26" rx="13" fill="#ECECFF" stroke="#9370DB"/>
<text fill="#333333" text-anchor="middle"><tspan x="588.91" y="781.9">Strategic Pauses</tspan></text>
  <rect x="356" y="827" width="96.26" height="26" rx="13" fill="#ECECFF" stroke="#9370DB"/>
<text fill="#333333" text-anchor="middle"><tspan x="404.13" y="844.9">Eye Contact</tspan></text>
  <rect x="526" y="798" width="100.92" height="42" rx="13" fill="#ECECFF" stroke="#9370DB"/>
<text fill="#333333" text-anchor="middle"><tspan x="576.46" y="815.9">Connect with</tspan><tspan x="576.46" y="831.9">Individuals</tspan></text>
  <rect x="526" y="848" width="116.49" height="26" rx="13" fill="#ECECFF" stroke="#9370DB"/>
<text fill="#333333" text-anchor="middle"><tspan x="584.24" y="865.9">Scan the Room</tspan></text>
  <rect x="186" y="943.5" width="99.38" height="26" rx="13" fill="#ECECFF" stroke="#9370DB"/>
<text fill="#333333" text-anchor="middle"><tspan x="235.69" y="961.4">Engagement</tspan></text>
  <rect x="356" y="899" width="160.84" height="26" rx="13" fill="#ECECFF" stroke="#9370DB"/>
<text fill="#333333" text-anchor="middle"><tspan x="436.42" y="916.9">Interactive Techniques</tspan></text>
  <rect x="526" y="882" width="130.49" height="26" rx="13" fill="#ECECFF" stroke="#9370DB"/>
<text fill="#333333" text-anchor="middle"><tspan x="591.24" y="899.9">Questions &amp; Polls</tspan></text>
  <rect x="526" y="916" width="89.24" height="26" rx="13" fill="#ECECFF" stroke="#9370DB"/>
<text fill="#333333" text-anchor="middle"><tspan x="570.62" y="933.9">Storytelling</tspan></text>
  <rect x="356" y="988" width="108.7" height="26" rx="13" fill="#ECECFF" stroke="#9370DB"/>
<text fill="#333333" text-anchor="middle"><tspan x="410.35" y="1005.9">Handling Q&amp;A</tspan></text>
  <rect x="526" y="950" width="109.47" height="26" rx="13" fill="#ECECFF" stroke="#9370DB"/>
<text fill="#333333" text-anchor="middle"><tspan x="580.74" y="967.9">Listen Actively</tspan></text>
  <rect x="526" y="984" width="128.14" height="26" rx="13" fill="#ECECFF" stroke="#9370DB"/>
<text fill="#333333" text-anchor="middle"><tspan x="590.07" y="1001.9">Concise Answers</tspan></text>
  <rect x="526" y="1018" width="120.37" height="42" rx="13" fill="#ECECFF" stroke="#9370DB"/>
<text fill="#333333" text-anchor="middle"><tspan x="586.18" y="1035.9">Manage Difficult</tspan><tspan x="586.18" y="1051.9">Questions</tspan></text>
</svg>
